<svg width="13" height="8" viewBox="0 0 13 8" fill="none" xmlns="http://www.w3.org/2000/svg">
<path d="M6.25256 7.43989C5.93375 7.44028 5.63022 7.30386 5.41953 7.06549L0.692644 1.71253C0.381921 1.3436 0.423644 0.79502 0.786618 0.476955C1.14959 0.15889 1.70105 0.187683 2.02866 0.541807L6.16198 5.22277C6.18485 5.24876 6.21786 5.26367 6.25256 5.26367C6.28725 5.26367 6.32026 5.24876 6.34313 5.22277L10.4765 0.541807C10.684 0.295406 11.0092 0.180319 11.3262 0.241082C11.6433 0.301845 11.9024 0.528924 12.0034 0.834449C12.1043 1.13997 12.0313 1.47601 11.8125 1.71253L7.08703 7.06357C6.87598 7.30252 6.57203 7.43959 6.25256 7.43989Z" fill="black"/>
</svg>
