<svg width="17" height="16" viewBox="0 0 17 16" fill="none" xmlns="http://www.w3.org/2000/svg">
<path fill-rule="evenodd" clip-rule="evenodd" d="M0.0852051 8C0.0852051 3.58172 3.6771 0 8.10793 0C12.5366 0.00514317 16.1255 3.58385 16.1307 8C16.1307 12.4183 12.5388 16 8.10793 16C3.6771 16 0.0852051 12.4183 0.0852051 8ZM8.16275 11.6593L12.7391 5.46667C12.8938 5.27572 12.9307 5.01545 12.8353 4.78918C12.7398 4.56291 12.5274 4.40726 12.2823 4.38403C12.0372 4.36079 11.7992 4.47373 11.6627 4.678L7.49954 10.312L4.77449 8.138C4.48612 7.90788 4.06527 7.95444 3.83449 8.242C3.60372 8.52956 3.65042 8.94921 3.93879 9.17933L7.20671 11.7847C7.34957 11.896 7.53131 11.9455 7.71109 11.9219C7.89087 11.8983 8.05361 11.8037 8.16275 11.6593Z" fill="#FFAC12"/>
</svg>
