<svg width="16" height="16" viewBox="0 0 16 16" fill="none" xmlns="http://www.w3.org/2000/svg">
<path fill-rule="evenodd" clip-rule="evenodd" d="M12.2362 2H14.0747C14.8132 2 15.4118 2.59695 15.4118 3.33333V14.6667C15.4118 15.403 14.8132 16 14.0747 16H1.37203C0.633562 16 0.0349121 15.403 0.0349121 14.6667V3.33333C0.0349121 2.59695 0.633562 2 1.37203 2H2.37488C2.55949 2 2.70916 2.14924 2.70916 2.33333V3.83333C2.70916 4.10948 2.93365 4.33333 3.21058 4.33333C3.4875 4.33333 3.712 4.10948 3.712 3.83333V0.666667C3.712 0.298477 4.01132 0 4.38056 0C4.7498 0 5.04912 0.298477 5.04912 0.666667V1.834C5.04949 1.92579 5.12421 2 5.21626 2H9.39477C9.57939 2 9.72905 2.14924 9.72905 2.33333V3.83333C9.72905 4.10948 9.95354 4.33333 10.2305 4.33333C10.5074 4.33333 10.7319 4.10948 10.7319 3.83333V0.666667C10.7319 0.298477 11.0312 0 11.4005 0C11.7697 0 12.069 0.298477 12.069 0.666667V1.83333C12.069 1.92538 12.1438 2 12.2362 2ZM1.70726 14.6667H13.7414C13.926 14.6667 14.0756 14.5174 14.0756 14.3333V6.33333C14.0756 6.14924 13.926 6 13.7414 6H1.70726C1.52264 6 1.37298 6.14924 1.37298 6.33333V14.3333C1.37298 14.5174 1.52264 14.6667 1.70726 14.6667Z" fill="black"/>
</svg>
