<svg width="17" height="16" viewBox="0 0 17 16" fill="none" xmlns="http://www.w3.org/2000/svg">
<path d="M16.1943 3.94466L8.50581 0.611331C8.42069 0.573567 8.3235 0.573567 8.23838 0.611331L0.549933 3.94466C0.42817 3.99766 0.349434 4.11752 0.349365 4.25V5.25C0.349365 5.43409 0.499028 5.58333 0.683646 5.58333H16.0605C16.2452 5.58333 16.3948 5.43409 16.3948 5.25V4.25C16.3948 4.11752 16.316 3.99766 16.1943 3.94466Z" fill="black"/>
<path d="M11.8821 9.58337H5.19649C4.91956 9.58337 4.69507 9.80723 4.69507 10.0834C4.69507 10.3595 4.91956 10.5834 5.19649 10.5834H11.8821C12.159 10.5834 12.3835 10.3595 12.3835 10.0834C12.3835 9.80723 12.159 9.58337 11.8821 9.58337V9.58337Z" fill="black"/>
<path d="M11.8821 11.9166H5.19649C4.91956 11.9166 4.69507 12.1405 4.69507 12.4166C4.69507 12.6928 4.91956 12.9166 5.19649 12.9166H11.8821C12.159 12.9166 12.3835 12.6928 12.3835 12.4166C12.3835 12.1405 12.159 11.9166 11.8821 11.9166Z" fill="black"/>
<path fill-rule="evenodd" clip-rule="evenodd" d="M15.7263 14.0834C16.0955 14.0834 16.3948 14.3819 16.3948 14.75C16.3948 15.1182 16.0955 15.4167 15.7263 15.4167H1.01793C0.64869 15.4167 0.349365 15.1182 0.349365 14.75C0.349365 14.3819 0.64869 14.0834 1.01793 14.0834H1.35221C1.53682 14.0834 1.68649 13.9341 1.68649 13.75V6.91671C1.68649 6.73261 1.83615 6.58337 2.02077 6.58337H14.7234C14.908 6.58337 15.0577 6.73261 15.0577 6.91671V13.75C15.0577 13.9341 15.2074 14.0834 15.392 14.0834H15.7263ZM4.36073 8.25004C3.99149 8.25004 3.69217 8.54852 3.69217 8.91671V13.75C3.69217 13.9341 3.84183 14.0834 4.02645 14.0834H13.052C13.2366 14.0834 13.3863 13.9341 13.3863 13.75V8.91671C13.3863 8.54852 13.087 8.25004 12.7177 8.25004H4.36073Z" fill="black"/>
</svg>
